<?xml version="1.0" encoding="UTF-8" standalone="no"?>
<svg
   id="Layer_1"
   data-name="Layer 1"
   viewBox="0 0 512 512"
   version="1.1"
   sodipodi:docname="SDBlueIcon.svg"
   inkscape:version="1.2.2 (b0a8486, 2022-12-01)"
   xmlns:inkscape="http://www.inkscape.org/namespaces/inkscape"
   xmlns:sodipodi="http://sodipodi.sourceforge.net/DTD/sodipodi-0.dtd"
   xmlns="http://www.w3.org/2000/svg"
   xmlns:svg="http://www.w3.org/2000/svg">
  <sodipodi:namedview
     id="namedview13"
     pagecolor="#ffffff"
     bordercolor="#000000"
     borderopacity="0.25"
     inkscape:showpageshadow="2"
     inkscape:pageopacity="0.0"
     inkscape:pagecheckerboard="0"
     inkscape:deskcolor="#d1d1d1"
     showgrid="false"
     inkscape:zoom="1.6199667"
     inkscape:cx="353.09369"
     inkscape:cy="422.23091"
     inkscape:window-width="1309"
     inkscape:window-height="456"
     inkscape:window-x="0"
     inkscape:window-y="25"
     inkscape:window-maximized="0"
     inkscape:current-layer="Layer_1" />
  <defs
     id="defs4">
    <style
       id="style2">.cls-1{fill:#4568f9;}</style>
  </defs>
  <title
     id="title6">512</title>
  <path
     class="cls-1"
     d="m 432.50332,437.89275 a 6.3060997,7.5171369 0 0 0 6.3061,-7.51714 c 0,-4.1521 -12.61289,-4.1521 -12.61289,0 a 6.306786,7.517955 0 0 0 6.30679,7.51714 z"
     id="path8"
     style="stroke-width:0.0749352" />
  <path
     class="cls-1"
     d="m 437.11347,446.66165 h -0.006 a 0.51269662,0.611156 0 0 1 0,-1.15359 l 0.006,-0.004 c 4.79958,-2.08465 8.33836,-7.3257 8.83321,-13.60743 0.0213,-0.26345 0.0363,-0.52934 0.0466,-0.79688 a 0.57927166,0.69051629 0 0 0 -0.57859,-0.72079 h -2.12285 a 0.57309459,0.68315295 0 0 0 -0.57241,0.64716 c -0.011,0.25117 -0.0288,0.49988 -0.0522,0.74697 -0.58202,6.06983 -4.91832,10.79954 -10.16402,10.79954 -5.24571,0 -9.58201,-4.73053 -10.16403,-10.79954 q -0.0357,-0.37062 -0.0521,-0.74697 a 0.57309459,0.68315295 0 0 0 -0.5724,-0.64716 h -2.12286 a 0.57927166,0.69051629 0 0 0 -0.57859,0.72079 c 0.01,0.26754 0.0254,0.53343 0.046,0.79688 0.49554,6.28173 4.03363,11.52278 8.8339,13.60743 l 0.006,0.004 a 0.51269662,0.611156 0 0 1 0,1.15359 h -0.006 c -4.80027,2.08545 -8.33836,7.32569 -8.8339,13.60742 -0.0206,0.26426 -0.0364,0.53016 -0.046,0.79769 a 0.57995802,0.69133443 0 0 0 0.57859,0.72079 h 2.12286 a 0.57309459,0.68315295 0 0 0 0.5724,-0.64797 q 0.0165,-0.37553 0.0521,-0.74615 c 0.58202,-6.07065 4.91832,-10.79954 10.16403,-10.79954 v 0 c 5.2457,0 9.582,4.73052 10.16402,10.79954 0.0233,0.24544 0.0412,0.4958 0.0522,0.74615 a 0.57309459,0.68315295 0 0 0 0.57241,0.64797 h 2.12285 a 0.57995802,0.69133443 0 0 0 0.57859,-0.72079 c -0.0103,-0.26753 -0.0254,-0.53343 -0.0466,-0.79769 -0.49485,-6.28173 -4.03363,-11.52197 -8.83321,-13.60742 z"
     id="path10"
     style="stroke-width:0.0749352" />
</svg>
