<svg id="Layer_1" data-name="Layer 1" xmlns="http://www.w3.org/2000/svg" viewBox="0 0 512 512"><defs><style>.cls-1{fill:#4568f9;}</style></defs><title>512</title><path class="cls-1" d="M256,175.16a91.88,91.88,0,0,0,91.88-91.88c0-50.75-183.77-50.75-183.77,0A91.89,91.89,0,0,0,256,175.16Z"/><path class="cls-1" d="M323.17,282.34l-.08,0a7.47,7.47,0,0,1,0-14.1l.08-.05c69.93-25.48,121.49-89.54,128.7-166.32.31-3.22.53-6.47.68-9.74a8.44,8.44,0,0,0-8.43-8.81H413.19a8.35,8.35,0,0,0-8.34,7.91c-.16,3.07-.42,6.11-.76,9.13-8.48,74.19-71.66,132-148.09,132s-139.61-57.82-148.09-132q-.52-4.53-.76-9.13a8.35,8.35,0,0,0-8.34-7.91H67.88a8.44,8.44,0,0,0-8.43,8.81c.14,3.27.37,6.52.67,9.74,7.22,76.78,58.77,140.84,128.71,166.32l.08.05a7.47,7.47,0,0,1,0,14.1l-.08,0C118.89,307.83,67.34,371.88,60.12,448.66c-.3,3.23-.53,6.48-.67,9.75a8.45,8.45,0,0,0,8.43,8.81H98.81a8.35,8.35,0,0,0,8.34-7.92q.24-4.59.76-9.12c8.48-74.2,71.66-132,148.09-132h0c76.43,0,139.61,57.82,148.09,132,.34,3,.6,6.06.76,9.12a8.35,8.35,0,0,0,8.34,7.92h30.93a8.45,8.45,0,0,0,8.43-8.81c-.15-3.27-.37-6.52-.68-9.75C444.66,371.88,393.1,307.83,323.17,282.34Z"/></svg>